<?xml version="1.0" encoding="UTF-8" standalone="no"?>
<!-- Created with Inkscape (http://www.inkscape.org/) -->

<svg
   xmlns:dc="http://purl.org/dc/elements/1.1/"
   xmlns:cc="http://creativecommons.org/ns#"
   xmlns:rdf="http://www.w3.org/1999/02/22-rdf-syntax-ns#"
   xmlns:svg="http://www.w3.org/2000/svg"
   xmlns="http://www.w3.org/2000/svg"
   xmlns:sodipodi="http://sodipodi.sourceforge.net/DTD/sodipodi-0.dtd"
   xmlns:inkscape="http://www.inkscape.org/namespaces/inkscape"
   width="192"
   height="192"
   id="svg2"
   version="1.1"
   inkscape:version="0.48.5 r10040"
   sodipodi:docname="twradiation_logo.svg">
  <defs
     id="defs4" />
  <sodipodi:namedview
     id="base"
     pagecolor="#ffffff"
     bordercolor="#666666"
     borderopacity="1.0"
     inkscape:pageopacity="0.0"
     inkscape:pageshadow="2"
     inkscape:zoom="0.98994949"
     inkscape:cx="-21.376971"
     inkscape:cy="55.276335"
     inkscape:document-units="px"
     inkscape:current-layer="layer1"
     showgrid="false"
     inkscape:window-width="888"
     inkscape:window-height="626"
     inkscape:window-x="218"
     inkscape:window-y="135"
     inkscape:window-maximized="0" />
  <metadata
     id="metadata7">
    <rdf:RDF>
      <cc:Work
         rdf:about="">
        <dc:format>image/svg+xml</dc:format>
        <dc:type
           rdf:resource="http://purl.org/dc/dcmitype/StillImage" />
        <dc:title></dc:title>
      </cc:Work>
    </rdf:RDF>
  </metadata>
  <g
     inkscape:label="Layer 1"
     inkscape:groupmode="layer"
     id="layer1"
     transform="translate(0,-860.36218)">
    <g
       id="g3835"
       transform="matrix(1,0,0,-1,7.0710678,1907.0616)">
      <path
         transform="matrix(0.88804143,0,0,0.88804143,-11.246839,845.21348)"
         d="m 198.57143,116.28571 c 0,47.3387 -38.3756,85.71429 -85.71429,85.71429 -47.338694,0 -85.714287,-38.37559 -85.714287,-85.71429 0,-47.33869 38.375593,-85.714284 85.714287,-85.714284 47.33869,0 85.71429,38.375594 85.71429,85.714284 z"
         sodipodi:ry="85.714287"
         sodipodi:rx="85.714287"
         sodipodi:cy="116.28571"
         sodipodi:cx="112.85714"
         id="path3043"
         style="fill:#edd400;fill-opacity:1;stroke:#edd400;stroke-width:22.52147102;stroke-miterlimit:4;stroke-opacity:1;stroke-dasharray:none"
         sodipodi:type="arc" />
      <path
         sodipodi:end="1.0471976"
         sodipodi:start="0"
         sodipodi:type="arc"
         style="fill:#000000;fill-opacity:1;stroke:none"
         id="path3045"
         sodipodi:cx="112.85714"
         sodipodi:cy="116.28571"
         sodipodi:rx="85.714287"
         sodipodi:ry="85.714287"
         d="m 198.57143,116.28571 c 0,30.62277 -16.33706,58.91937 -42.85715,74.23076 l -42.85714,-74.23076 z"
         transform="matrix(0.88804143,0,0,0.88804143,-11.246839,845.21348)" />
      <path
         transform="matrix(0.88804143,0,0,0.88804143,-11.246839,845.21348)"
         d="M 69.999996,190.51646 C 43.479902,175.20508 27.142851,146.90848 27.142853,116.28571 l 85.714287,0 z"
         sodipodi:ry="85.714287"
         sodipodi:rx="85.714287"
         sodipodi:cy="116.28571"
         sodipodi:cx="112.85714"
         id="path3051"
         style="fill:#000000;fill-opacity:1;stroke:none"
         sodipodi:type="arc"
         sodipodi:start="2.0943951"
         sodipodi:end="3.1415927" />
      <path
         sodipodi:end="5.2359878"
         sodipodi:start="4.1887902"
         sodipodi:type="arc"
         style="fill:#000000;fill-opacity:1;stroke:none"
         id="path3821"
         sodipodi:cx="112.85714"
         sodipodi:cy="116.28571"
         sodipodi:rx="85.714287"
         sodipodi:ry="85.714287"
         d="m 69.999996,42.054964 c 26.520094,-15.311384 59.194194,-15.311383 85.714294,1e-6 l -42.85715,74.230745 z"
         transform="matrix(0.88804143,0,0,0.88804143,-11.246839,845.21348)" />
      <path
         sodipodi:type="arc"
         style="fill:#000000;fill-opacity:1;stroke:#edd400;stroke-width:33.46879578;stroke-miterlimit:4;stroke-opacity:1;stroke-dasharray:none"
         id="path3823"
         sodipodi:cx="112.85714"
         sodipodi:cy="116.28571"
         sodipodi:rx="85.714287"
         sodipodi:ry="85.714287"
         d="m 198.57143,116.28571 c 0,47.3387 -38.3756,85.71429 -85.71429,85.71429 -47.338694,0 -85.714287,-38.37559 -85.714287,-85.71429 0,-47.33869 38.375593,-85.714284 85.714287,-85.714284 47.33869,0 85.71429,38.375594 85.71429,85.714284 z"
         transform="matrix(0.26533415,0,0,0.26533415,59.478646,918.07397)" />
    </g>
  </g>
</svg>
